<svg width="200" height="200" viewBox="0 0 200 200" fill="none" xmlns="http://www.w3.org/2000/svg">
<rect width="200" height="200" fill="white"/>
<path d="M40.3 89H42.85V111.05L26.95 94.37V110H24.4V87.95L40.3 104.63V89ZM49.1617 99.5C49.1617 101.08 49.5017 102.49 50.1817 103.73C50.8817 104.97 51.8317 105.95 53.0317 106.67C54.2317 107.39 55.5917 107.75 57.1117 107.75C58.6517 107.75 60.0117 107.39 61.1917 106.67C62.3917 105.95 63.3317 104.97 64.0117 103.73C64.7117 102.49 65.0617 101.08 65.0617 99.5C65.0617 97.92 64.7117 96.51 64.0117 95.27C63.3317 94.03 62.3917 93.05 61.1917 92.33C60.0117 91.61 58.6517 91.25 57.1117 91.25C55.5917 91.25 54.2317 91.61 53.0317 92.33C51.8317 93.05 50.8817 94.03 50.1817 95.27C49.5017 96.51 49.1617 97.92 49.1617 99.5ZM46.4617 99.5C46.4617 97.96 46.7217 96.54 47.2417 95.24C47.7817 93.92 48.5317 92.78 49.4917 91.82C50.4517 90.84 51.5817 90.08 52.8817 89.54C54.1817 88.98 55.5917 88.7 57.1117 88.7C58.6517 88.7 60.0617 88.98 61.3417 89.54C62.6417 90.08 63.7717 90.84 64.7317 91.82C65.6917 92.78 66.4317 93.92 66.9517 95.24C67.4917 96.54 67.7617 97.96 67.7617 99.5C67.7617 101.02 67.4917 102.44 66.9517 103.76C66.4317 105.08 65.6917 106.23 64.7317 107.21C63.7717 108.17 62.6417 108.93 61.3417 109.49C60.0617 110.03 58.6517 110.3 57.1117 110.3C55.5917 110.3 54.1817 110.03 52.8817 109.49C51.5817 108.93 50.4517 108.17 49.4917 107.21C48.5317 106.23 47.7817 105.08 47.2417 103.76C46.7217 102.44 46.4617 101.02 46.4617 99.5ZM68.3547 91.4V89H81.7047V91.4H76.3047V110H73.7547V91.4H68.3547ZM94.1741 103.64C94.6541 104.48 95.1541 105.22 95.6741 105.86C96.2141 106.5 96.8141 107 97.4741 107.36C98.1341 107.72 98.8841 107.9 99.7241 107.9C100.844 107.9 101.744 107.59 102.424 106.97C103.104 106.35 103.444 105.56 103.444 104.6C103.444 103.66 103.224 102.91 102.784 102.35C102.344 101.79 101.764 101.34 101.044 101C100.344 100.64 99.5941 100.32 98.7941 100.04C98.2741 99.86 97.6941 99.63 97.0541 99.35C96.4141 99.05 95.8041 98.68 95.2241 98.24C94.6441 97.78 94.1641 97.22 93.7841 96.56C93.4241 95.9 93.2441 95.09 93.2441 94.13C93.2441 93.09 93.5041 92.16 94.0241 91.34C94.5441 90.52 95.2641 89.88 96.1841 89.42C97.1041 88.94 98.1541 88.7 99.3341 88.7C100.474 88.7 101.464 88.92 102.304 89.36C103.164 89.78 103.894 90.33 104.494 91.01C105.094 91.67 105.564 92.37 105.904 93.11L103.714 94.37C103.454 93.85 103.124 93.34 102.724 92.84C102.324 92.34 101.834 91.93 101.254 91.61C100.694 91.29 100.004 91.13 99.1841 91.13C98.0441 91.13 97.2141 91.41 96.6941 91.97C96.1741 92.51 95.9141 93.12 95.9141 93.8C95.9141 94.38 96.0641 94.92 96.3641 95.42C96.6641 95.9 97.1641 96.36 97.8641 96.8C98.5841 97.22 99.5541 97.64 100.774 98.06C101.334 98.26 101.924 98.52 102.544 98.84C103.164 99.16 103.734 99.57 104.254 100.07C104.794 100.55 105.234 101.14 105.574 101.84C105.914 102.52 106.084 103.34 106.084 104.3C106.084 105.22 105.904 106.05 105.544 106.79C105.204 107.53 104.724 108.16 104.104 108.68C103.504 109.2 102.814 109.6 102.034 109.88C101.274 110.16 100.474 110.3 99.6341 110.3C98.4941 110.3 97.4341 110.06 96.4541 109.58C95.4941 109.08 94.6441 108.43 93.9041 107.63C93.1841 106.81 92.5941 105.94 92.1341 105.02L94.1741 103.64ZM107.73 91.4V89H121.08V91.4H115.68V110H113.13V91.4H107.73ZM123.625 89H126.175V103.1C126.175 104.54 126.565 105.7 127.345 106.58C128.125 107.46 129.265 107.9 130.765 107.9C132.265 107.9 133.405 107.46 134.185 106.58C134.965 105.7 135.355 104.54 135.355 103.1V89H137.905V103.1C137.905 104.14 137.735 105.1 137.395 105.98C137.075 106.86 136.595 107.62 135.955 108.26C135.335 108.9 134.585 109.4 133.705 109.76C132.825 110.12 131.845 110.3 130.765 110.3C129.685 110.3 128.705 110.12 127.825 109.76C126.945 109.4 126.185 108.9 125.545 108.26C124.925 107.62 124.445 106.86 124.105 105.98C123.785 105.1 123.625 104.14 123.625 103.1V89ZM144.054 99.5C144.054 101.12 144.414 102.55 145.134 103.79C145.874 105.03 146.834 106 148.014 106.7C149.194 107.4 150.474 107.75 151.854 107.75C152.854 107.75 153.764 107.62 154.584 107.36C155.424 107.1 156.184 106.74 156.864 106.28C157.544 105.8 158.124 105.25 158.604 104.63V107.99C157.724 108.77 156.764 109.35 155.724 109.73C154.684 110.11 153.394 110.3 151.854 110.3C150.394 110.3 149.024 110.04 147.744 109.52C146.484 108.98 145.374 108.23 144.414 107.27C143.454 106.29 142.704 105.14 142.164 103.82C141.624 102.5 141.354 101.06 141.354 99.5C141.354 97.94 141.624 96.5 142.164 95.18C142.704 93.86 143.454 92.72 144.414 91.76C145.374 90.78 146.484 90.03 147.744 89.51C149.024 88.97 150.394 88.7 151.854 88.7C153.394 88.7 154.684 88.89 155.724 89.27C156.764 89.65 157.724 90.23 158.604 91.01V94.37C158.124 93.75 157.544 93.21 156.864 92.75C156.184 92.27 155.424 91.9 154.584 91.64C153.764 91.38 152.854 91.25 151.854 91.25C150.474 91.25 149.194 91.6 148.014 92.3C146.834 93 145.874 93.97 145.134 95.21C144.414 96.43 144.054 97.86 144.054 99.5ZM163.091 89H165.641V110H163.091V89ZM173.891 89H177.041L167.951 98.84L177.491 110H174.341L164.861 98.9L173.891 89Z" fill="black"/>
</svg>
